<svg width="50" height="29" viewBox="0 0 50 29" fill="none" xmlns="http://www.w3.org/2000/svg">
<rect width="50" height="29" rx="6" fill="#22262E"/>
<path d="M19.9032 17.096C19.9032 17.4227 19.8239 17.7027 19.6652 17.936C19.5999 18.0293 19.4832 18.1647 19.3152 18.342C19.1472 18.51 19.0166 18.6267 18.9232 18.692C18.6339 18.8973 18.2979 19 17.9152 19H13.9812V10.628H17.9152C18.2792 10.628 18.6152 10.7353 18.9232 10.95C19.0166 11.0153 19.1472 11.1367 19.3152 11.314C19.4832 11.482 19.5999 11.6127 19.6652 11.706C19.8239 11.9393 19.9032 12.2287 19.9032 12.574V13.61C19.9032 14.058 19.7212 14.464 19.3572 14.828C19.7212 15.192 19.9032 15.5933 19.9032 16.032V17.096ZM18.4192 13.68C18.4286 13.6613 18.4332 13.6287 18.4332 13.582V12.588L18.4192 12.518C18.3539 12.406 18.2652 12.2987 18.1532 12.196C18.0506 12.084 17.9666 12.028 17.9012 12.028H15.4512V14.142H17.9152C17.9806 14.142 18.0692 14.0907 18.1812 13.988C18.2932 13.8853 18.3726 13.7827 18.4192 13.68ZM18.4192 17.138C18.4286 17.11 18.4332 17.0773 18.4332 17.04V16.046L18.4192 15.976C18.3539 15.864 18.2652 15.7567 18.1532 15.654C18.0506 15.5513 17.9666 15.5 17.9012 15.5H15.4512V17.6H17.9152C17.9806 17.6 18.0692 17.5487 18.1812 17.446C18.2932 17.3433 18.3726 17.2407 18.4192 17.138ZM28.1169 17.012C28.1169 17.32 28.0422 17.586 27.8929 17.81C27.7809 17.9593 27.6129 18.146 27.3889 18.37C27.1742 18.594 27.0015 18.7433 26.8709 18.818C26.6002 18.986 26.3109 19.07 26.0029 19.07H23.8749C23.5669 19.07 23.2775 18.986 23.0069 18.818C22.8762 18.7433 22.6942 18.594 22.4609 18.37C22.2369 18.1367 22.0782 17.95 21.9849 17.81C21.8355 17.586 21.7609 17.32 21.7609 17.012V12.63C21.7609 12.322 21.8355 12.056 21.9849 11.832C22.0782 11.692 22.2369 11.51 22.4609 11.286C22.6942 11.0527 22.8762 10.8987 23.0069 10.824C23.2775 10.656 23.5669 10.572 23.8749 10.572H26.0029C26.3109 10.572 26.6002 10.656 26.8709 10.824C27.0015 10.8987 27.1742 11.048 27.3889 11.272C27.6129 11.496 27.7809 11.6827 27.8929 11.832C28.0422 12.056 28.1169 12.322 28.1169 12.63V17.012ZM23.2309 12.672V16.998C23.2309 17.026 23.2355 17.0447 23.2449 17.054C23.4315 17.334 23.6369 17.5347 23.8609 17.656C23.8795 17.6653 23.9029 17.67 23.9309 17.67H25.9469C25.9749 17.67 25.9982 17.6653 26.0169 17.656C26.2409 17.5347 26.4462 17.334 26.6329 17.054L26.6469 16.998V12.672C26.6469 12.6347 26.6422 12.6113 26.6329 12.602C26.4369 12.3127 26.2315 12.1073 26.0169 11.986C25.9982 11.9767 25.9749 11.972 25.9469 11.972H23.9309C23.8935 11.972 23.8702 11.9767 23.8609 11.986C23.6462 12.1073 23.4409 12.3127 23.2449 12.602L23.2309 12.672ZM34.009 17.124V15.99C34.009 15.962 34.0043 15.9387 33.995 15.92C33.939 15.8173 33.855 15.7147 33.743 15.612C33.6403 15.5093 33.5563 15.458 33.491 15.458H33.477H31.699V14.072H33.477H33.491C33.5563 14.072 33.6403 14.0207 33.743 13.918C33.855 13.8153 33.939 13.7127 33.995 13.61L34.009 13.54V12.532L33.995 12.462C33.9297 12.35 33.841 12.2473 33.729 12.154C33.6263 12.0513 33.5423 12 33.477 12H31.881C31.8623 12 31.8437 12.0047 31.825 12.014C31.7037 12.07 31.5683 12.168 31.419 12.308C31.279 12.4387 31.1857 12.5787 31.139 12.728L29.711 12.336C29.8323 12.084 29.9443 11.8833 30.047 11.734C30.6537 10.9687 31.251 10.586 31.839 10.586H33.491C33.855 10.586 34.1817 10.6887 34.471 10.894C34.7603 11.1087 35.0123 11.3653 35.227 11.664C35.395 11.916 35.479 12.2007 35.479 12.518V13.568C35.479 13.988 35.2923 14.3847 34.919 14.758C35.2923 15.1313 35.479 15.5327 35.479 15.962V17.138C35.479 17.4553 35.395 17.74 35.227 17.992C35.1617 18.0853 35.0403 18.2207 34.863 18.398C34.695 18.5753 34.5643 18.6967 34.471 18.762C34.1817 18.9673 33.855 19.07 33.491 19.07H31.839C31.2323 19.07 30.635 18.6873 30.047 17.922C29.8697 17.6793 29.753 17.4787 29.697 17.32L31.125 16.942C31.377 17.3153 31.6057 17.5533 31.811 17.656C31.8297 17.6653 31.853 17.67 31.881 17.67H33.477C33.533 17.67 33.617 17.6187 33.729 17.516C33.841 17.4133 33.9297 17.306 33.995 17.194C34.0043 17.1753 34.009 17.152 34.009 17.124Z" fill="#EAEEF7"/>
</svg>
