<svg width="60" height="23" viewBox="0 0 60 23" fill="none" xmlns="http://www.w3.org/2000/svg">
<path d="M42.1586 12.1906V22.4112H39.8976L35.0134 15.7697V22.4112H32.8473V13.1459L32.3523 12.1906H35.1528L39.9924 18.924V12.1906H42.1586Z" fill="#EAEEF7"/>
<path d="M19.6474 22.5877C20.393 22.5917 21.0818 22.466 21.7137 22.2121C22.3464 21.9582 22.8916 21.6059 23.3519 21.1569C23.8114 20.7079 24.1719 20.1751 24.4333 19.5601C24.6214 19.1175 24.7427 18.65 24.798 18.1582C24.8194 17.9672 24.8565 17.1965 24.8169 16.7314H19.6688L18.7523 18.5742H22.4256C22.2837 19.1562 21.9628 19.6358 21.4646 19.9969C20.9655 20.3589 20.3683 20.5378 19.6729 20.5346C19.2258 20.5322 18.8084 20.4451 18.4215 20.2734C18.0347 20.1017 17.6981 19.8696 17.4119 19.577C17.1248 19.2843 16.9013 18.9409 16.7388 18.5468C16.5771 18.1526 16.4971 17.7318 16.4995 17.2852C16.502 16.8387 16.5862 16.4187 16.752 16.0261C16.9178 15.6335 17.1454 15.2925 17.4358 15.0024C17.7254 14.7122 18.0619 14.4864 18.4455 14.3228C18.829 14.16 19.244 14.0794 19.6919 14.081C20.2982 14.0842 20.8336 14.218 21.2996 14.4824C21.7657 14.7468 22.1261 15.1273 22.3819 15.6239L24.4144 14.6727C23.9912 13.8456 23.3659 13.1967 22.5386 12.7259C21.7112 12.256 20.7708 12.0182 19.7174 12.0125C18.9718 12.0085 18.2656 12.144 17.5991 12.4172C16.9318 12.6904 16.351 13.0661 15.8569 13.545C15.3628 14.023 14.9694 14.5824 14.6782 15.2216C14.3862 15.8608 14.2394 16.5452 14.2352 17.2731C14.2311 18.001 14.3697 18.687 14.6493 19.3295C14.9298 19.9719 15.3117 20.5346 15.7959 21.0175C16.2801 21.5003 16.8526 21.8824 17.5117 22.1622C18.17 22.4418 18.8827 22.5837 19.6474 22.5877Z" fill="#EAEEF7"/>
<path d="M2.75762 12.19H0L0.520507 13.2467V21.356L0 22.4121H6.32857L6.90269 20.4122H2.75762V12.19Z" fill="#EAEEF7"/>
<path d="M7.66662 22.4121H13.8352V20.4129H9.91197V18.1704H12.9451L13.4945 16.2486H9.91197V14.181H13.8352V12.19H7.66662V22.4121Z" fill="#EAEEF7"/>
<path d="M25.6003 22.4121H31.7688V20.4129H27.8457V18.1704H30.8796L31.4281 16.2486H27.8457V14.181H31.7688V12.19H25.6003V22.4121Z" fill="#EAEEF7"/>
<path d="M29.5519 10.5761C30.2976 10.5801 30.9864 10.4544 31.6182 10.2004C32.2509 9.94653 32.7962 9.59424 33.2565 9.14524C33.7159 8.69631 34.0764 8.16345 34.3379 7.54836C34.526 7.10585 34.6472 6.6383 34.7025 6.14658C34.7239 5.95554 34.7611 5.18491 34.7215 4.71979H29.5733L28.6569 6.56172H32.3301C32.1882 7.14376 31.8674 7.62332 31.3691 7.98451C30.8701 8.34641 30.2728 8.52535 29.5774 8.52217C29.1303 8.51977 28.7129 8.43267 28.3261 8.261C27.9392 8.08926 27.6027 7.8571 27.3164 7.56452C27.0294 7.27187 26.8058 6.9285 26.6433 6.53432C26.4816 6.14014 26.4016 5.71935 26.4041 5.27277C26.4065 4.8262 26.4907 4.40622 26.6565 4.01365C26.8223 3.62108 27.05 3.2801 27.3403 2.98991C27.6299 2.69971 27.9664 2.474 28.35 2.31036C28.7336 2.14753 29.1485 2.06692 29.5964 2.06853C30.2027 2.07176 30.7381 2.20557 31.2041 2.46997C31.6702 2.73437 32.0306 3.11485 32.2864 3.61141L34.3189 2.66021C33.8958 1.83316 33.2705 1.18425 32.4432 0.713486C31.6157 0.243529 30.6754 0.00573006 29.622 8.73712e-05C28.8763 -0.00394312 28.1702 0.131481 27.5037 0.404749C26.8363 0.678016 26.2556 1.05366 25.7615 1.53248C25.2674 2.0105 24.8739 2.56993 24.5827 3.20916C24.2907 3.8484 24.1439 4.53278 24.1398 5.26068C24.1356 5.98859 24.2742 6.67458 24.5538 7.31705C24.8343 7.95953 25.2162 8.52217 25.7005 9.00498C26.1847 9.48786 26.7571 9.86995 27.4162 10.1497C28.0745 10.431 28.7864 10.5728 29.5519 10.5761Z" fill="#EAEEF7"/>
<path d="M2.75762 0.178856H0L0.520507 1.23565V9.34497L0 10.401H6.32857L6.90269 8.40024H2.75762V0.178856Z" fill="#EAEEF7"/>
<path d="M7.66662 10.401H13.8352V8.40102H9.91197V6.15929H12.9451L13.4945 4.23756H9.91197V2.16992H13.8352V0.178856H7.66662V10.401Z" fill="#EAEEF7"/>
<path d="M44.871 10.401H51.0388V8.40102H47.1164V6.15929H50.1495L50.6981 4.23756H47.1164V2.16992H51.0388V0.178856H44.871V10.401Z" fill="#EAEEF7"/>
<path d="M20.7504 0.178856H17.5605L18.2352 1.48232L14.5512 10.4018H16.8461L17.6281 8.40752H21.7773L22.5816 10.4018H24.921L20.7504 0.178856ZM18.3945 6.45271L19.7415 3.01794L21.0357 6.45271H18.3945Z" fill="#EAEEF7"/>
<path d="M56.8993 2.98992V7.5871H58.0549V6.03294H59.2478L59.5365 5.0221H58.0549V4.0314H59.7493V2.98992H56.8993Z" fill="#EAEEF7"/>
<path d="M54.0428 2.89857C52.6966 2.89857 51.6019 3.97068 51.6019 5.28865C51.6019 6.60662 52.6966 7.6787 54.0428 7.6787C55.389 7.6787 56.4836 6.60662 56.4836 5.28865C56.4836 3.97068 55.3882 2.89857 54.0428 2.89857ZM54.0428 6.56954C53.3227 6.56954 52.7369 5.99479 52.7369 5.28865C52.7369 4.58251 53.3227 4.00776 54.0428 4.00776C54.7629 4.00776 55.3486 4.58251 55.3486 5.28865C55.3486 5.99479 54.7629 6.56954 54.0428 6.56954Z" fill="#EAEEF7"/>
<path d="M39.698 10.5783C39.0414 10.5783 38.454 10.4784 37.9368 10.2793C37.4196 10.0801 36.9816 9.7956 36.6236 9.42558C36.2656 9.05642 35.9893 8.60904 35.7954 8.08345C35.6015 7.55871 35.5042 6.97507 35.5042 6.33341V0.178856H37.7726V6.21734C37.7726 6.90816 37.9368 7.45227 38.2651 7.85129C38.5934 8.25032 39.0711 8.44944 39.698 8.44944C40.3249 8.44944 40.8025 8.25032 41.1308 7.85129C41.4591 7.45227 41.6233 6.90816 41.6233 6.21734V0.178856H43.8917V6.33422C43.8917 6.97587 43.7944 7.55949 43.6006 8.08423C43.4067 8.60904 43.1304 9.05642 42.7724 9.42643C42.4143 9.79637 41.9764 10.0801 41.4591 10.28C40.9411 10.4784 40.3546 10.5783 39.698 10.5783Z" fill="#EAEEF7"/>
<path d="M57.0601 16.3502L55.6479 16.085C55.0127 15.9657 54.663 15.6175 54.663 15.104C54.663 14.4043 55.3971 13.9859 56.1065 13.9859C56.3482 13.9859 57.5509 14.0472 57.7983 15.2192L59.7443 14.2907C59.4572 13.4571 58.5977 12.0118 56.0925 12.0118C54.0724 12.0118 52.4283 13.462 52.4283 15.2442C52.4283 16.7557 53.4627 17.864 55.1942 18.2091L56.6072 18.488C57.3051 18.6242 57.7217 19.012 57.7217 19.5246C57.7217 20.188 57.1467 20.5911 56.2212 20.6007C55.0985 20.612 54.1911 19.7963 54.0509 18.9934L52.1809 20.0131C52.6098 21.3778 53.9313 22.5902 56.2072 22.5902C57.6392 22.5902 58.5235 22.0493 59.0126 21.5955C59.6404 21.0143 60 20.2139 60 19.3997C59.9984 17.8616 58.8724 16.6936 57.0601 16.3502Z" fill="#EAEEF7"/>
<path d="M51.56 15.3103C51.282 14.6888 50.9025 14.1503 50.4216 13.6932C49.94 13.237 49.3765 12.8774 48.7314 12.6147C48.0856 12.3519 47.1666 12.1882 46.6758 12.1882H43.1387V22.4096H46.6693C47.3943 22.4096 48.0798 22.2814 48.7257 22.0202C49.3716 21.7583 49.9349 21.3996 50.4175 20.9441C50.8993 20.4879 51.2804 19.9501 51.5584 19.3287C51.8372 18.708 51.9766 18.0381 51.9774 17.3199C51.9766 16.6017 51.838 15.9318 51.56 15.3103ZM49.4425 18.5121C49.2833 18.8812 49.0672 19.2013 48.7941 19.473C48.5203 19.7446 48.1953 19.9607 47.8175 20.1203C47.4397 20.2799 47.0372 20.3597 46.6107 20.3597H45.3741V14.2736H46.6148C47.0421 14.2736 47.4438 14.3543 47.8216 14.5146C48.1986 14.6751 48.5236 14.8911 48.7974 15.1628C49.0705 15.4352 49.2858 15.7577 49.445 16.1317C49.6034 16.5057 49.6834 16.9015 49.6825 17.3183C49.6818 17.7463 49.6017 18.1437 49.4425 18.5121Z" fill="#EAEEF7"/>
</svg>
